<svg width="200" height="200" viewBox="0 0 200 200" fill="none" xmlns="http://www.w3.org/2000/svg">
<rect width="200" height="200" fill="black"/>
<path fill-rule="evenodd" clip-rule="evenodd" d="M101.518 46.5017C100.273 45.7661 98.7265 45.7661 97.4817 46.5017L53.8483 72.285C52.6407 72.9986 51.8997 74.2971 51.8997 75.7C51.8997 77.1029 52.6407 78.4014 53.8483 79.115L97.4817 104.898C98.7265 105.634 100.273 105.634 101.518 104.898L145.151 79.115C146.359 78.4014 147.1 77.1029 147.1 75.7C147.1 74.2971 146.359 72.9986 145.151 72.285L101.518 46.5017ZM99.4997 96.8759L63.6635 75.7L99.4997 54.5241L135.336 75.7L99.4997 96.8759ZM52.4514 99.4654C53.5658 97.5793 55.9983 96.9539 57.8843 98.0683L99.4997 122.659L141.115 98.0683C143.001 96.9539 145.433 97.5793 146.548 99.4654C147.662 101.351 147.037 103.784 145.151 104.898L101.518 130.682C100.273 131.417 98.7265 131.417 97.4817 130.682L53.8483 104.898C51.9624 103.784 51.3368 101.351 52.4514 99.4654ZM52.4513 123.265C53.5658 121.379 55.9982 120.754 57.8843 121.868L99.4997 146.459L141.115 121.868C143.001 120.754 145.433 121.379 146.548 123.265C147.662 125.152 147.037 127.584 145.151 128.699L101.518 154.482C100.273 155.217 98.7265 155.217 97.4817 154.482L53.8483 128.699C51.9623 127.584 51.3368 125.152 52.4513 123.265Z" fill="#FF9500"/>
</svg>
